<svg id="SvgjsSvg1050" width="575.875" height="107.04023453179967" xmlns="http://www.w3.org/2000/svg" version="1.1" xmlns:xlink="http://www.w3.org/1999/xlink" xmlns:svgjs="http://svgjs.com/svgjs"><defs id="SvgjsDefs1051"/><g id="SvgjsG1052" transform="scale(0.7069281616988936)" opacity="1"><g id="SvgjsG1053" class="xODYVc5pb" transform="translate(0, 0) scale(1.51416)" light-content="false" fill="#2788ce"><path d="M24 0h76v76c0 13.255-10.745 24-24 24H0V24C0 10.745 10.745 0 24 0z"/></g><g id="SvgjsG1054" class="he6nylcURj" transform="translate(26.65762106618328, 28.50883107301848) scale(0.9823337080098704)" light-content="true" fill="#ffffff"><path d="M49.927 40.443c9.036 0 16.354-7.321 16.354-16.349S58.963 7.747 49.927 7.747c-9.023 0-16.339 7.319-16.339 16.348s7.315 16.348 16.339 16.348z"/><path d="M63.967 39.181c-3.352 4.023-8.395 6.584-14.04 6.584-5.637 0-10.676-2.561-14.028-6.58-5.564 4.999-9.159 7.313-9.159 16.209 0 15.117 2.092 32.955 23.187 32.955 21.103 0 23.195-17.838 23.195-32.955 0-8.896-3.595-11.211-9.155-16.213zM49.918 81.143c-4.506 0-4.633-22.214-4.633-23.296 0-1.083 3.251-2.597 3.251-2.597s-3.205-2.293-3.205-3.477c0-1.185 3.399-4.478 4.734-4.478 1.336 0 4.421 3.352 4.421 4.478 0 1.127-3.023 3.529-3.023 3.529s3.112 1.461 3.112 2.544-.153 23.297-4.657 23.297zm35.734-35.788c5.295 0 9.588-4.298 9.588-9.596 0-5.294-4.293-9.588-9.588-9.588-5.301 0-9.592 4.294-9.592 9.588.001 5.299 4.292 9.596 9.592 9.596zm-71.439 0c5.3 0 9.592-4.298 9.592-9.596 0-5.294-4.292-9.588-9.592-9.588-5.296 0-9.588 4.294-9.588 9.588 0 5.299 4.292 9.596 9.588 9.596z"/><path d="M93.882 44.616a10.688 10.688 0 0 1-8.229 3.861 10.684 10.684 0 0 1-8.236-3.863c-.783.707-1.494 1.317-2.135 1.917 1.154 2.103 1.799 4.674 1.799 8.42 0 4.846-.221 9.964-1.204 14.69 2.027 2.329 5.108 3.819 9.776 3.819 12.376 0 13.604-10.467 13.604-19.337 0-5.215-2.109-6.575-5.375-9.507zm-71.433-.002a10.684 10.684 0 0 1-8.236 3.863 10.676 10.676 0 0 1-8.229-3.861C2.717 47.549.608 48.908.608 54.124c0 8.87 1.226 19.337 13.605 19.337 4.668 0 7.746-1.49 9.777-3.819-.988-4.727-1.207-9.845-1.207-14.69 0-3.746.644-6.317 1.802-8.42-.641-.601-1.354-1.212-2.136-1.918z"/></g><g id="SvgjsG1055" class="text" transform="translate(192.60600005722046, 63.64299755859375)" light-content="false" fill="#2788ce"><path d="M44.79 -12.36C44.79 -13.87 44.61 -15.21 44.24 -16.41C43.87 -17.6 43.36 -18.65 42.73 -19.57C42.09 -20.49 41.37 -21.27 40.55 -21.93C39.73 -22.58 38.86 -23.12 37.95 -23.55C37.05 -23.98 36.13 -24.3 35.21 -24.51C34.3 -24.71 33.43 -24.82 32.61 -24.84L32.55 -24.84L15.03 -24.84C13.58 -24.84 12.46 -25.27 11.65 -26.12C10.83 -26.97 10.43 -28.12 10.43 -29.59C10.43 -31.04 10.83 -32.2 11.65 -33.08C12.46 -33.96 13.58 -34.39 15.03 -34.39L40.96 -34.39L40.96 -42.01L15.03 -42.01C13.8 -42.01 12.47 -41.79 11.04 -41.35C9.62 -40.91 8.3 -40.2 7.08 -39.21C5.85 -38.23 4.84 -36.95 4.03 -35.38C3.22 -33.8 2.81 -31.87 2.81 -29.59C2.81 -27.3 3.22 -25.37 4.03 -23.79C4.84 -22.21 5.85 -20.93 7.08 -19.95C8.3 -18.97 9.62 -18.27 11.04 -17.83C12.47 -17.39 13.8 -17.17 15.03 -17.17L32.55 -17.17C33.25 -17.17 33.89 -17.05 34.47 -16.82C35.04 -16.58 35.53 -16.25 35.93 -15.82C36.33 -15.39 36.64 -14.88 36.86 -14.3C37.07 -13.71 37.18 -13.07 37.18 -12.36C37.18 -10.92 36.77 -9.77 35.96 -8.91C35.15 -8.05 34.01 -7.62 32.55 -7.62L3.16 -7.62L3.16 0L32.55 0C33.37 0 34.24 -0.1 35.17 -0.29C36.1 -0.49 37.01 -0.79 37.91 -1.2C38.81 -1.61 39.68 -2.14 40.52 -2.78C41.36 -3.43 42.09 -4.21 42.71 -5.13C43.34 -6.04 43.84 -7.1 44.22 -8.31C44.6 -9.51 44.79 -10.86 44.79 -12.36Z M90.9 -3.84L90.9 -31.67L83.29 -31.67L83.29 -7.62L69.96 -7.62C69.04 -7.62 68.18 -7.77 67.39 -8.07C66.6 -8.37 65.91 -8.81 65.33 -9.37C64.74 -9.94 64.28 -10.62 63.93 -11.41C63.59 -12.2 63.42 -13.1 63.42 -14.09L63.42 -31.67L55.8 -31.67L55.8 -14.09C55.8 -12.37 56.02 -10.83 56.46 -9.46C56.9 -8.1 57.48 -6.89 58.21 -5.84C58.93 -4.8 59.77 -3.91 60.74 -3.18C61.71 -2.45 62.71 -1.84 63.74 -1.36C64.78 -0.88 65.83 -0.54 66.89 -0.32C67.96 -0.11 68.96 0 69.9 0L87.12 0C87.65 0 88.14 -0.1 88.6 -0.29C89.06 -0.49 89.46 -0.76 89.8 -1.1C90.14 -1.44 90.41 -1.85 90.61 -2.31C90.8 -2.78 90.9 -3.29 90.9 -3.84Z M138.97 -10.69L138.97 -21.01C138.97 -21.73 138.89 -22.49 138.72 -23.29C138.56 -24.09 138.3 -24.89 137.95 -25.68C137.6 -26.47 137.14 -27.23 136.58 -27.95C136.03 -28.67 135.35 -29.31 134.56 -29.85C133.77 -30.4 132.86 -30.84 131.82 -31.17C130.79 -31.5 129.62 -31.67 128.31 -31.67L114.57 -31.67C113.87 -31.67 113.11 -31.59 112.3 -31.42C111.49 -31.25 110.69 -31 109.9 -30.64C109.1 -30.29 108.35 -29.84 107.63 -29.28C106.9 -28.73 106.26 -28.05 105.71 -27.26C105.15 -26.47 104.71 -25.56 104.37 -24.52C104.04 -23.49 103.88 -22.31 103.88 -21.01L103.88 9.9L111.49 9.9L111.49 -21.01C111.49 -22 111.76 -22.76 112.28 -23.28C112.81 -23.79 113.59 -24.05 114.63 -24.05L128.31 -24.05C129.3 -24.05 130.06 -23.8 130.58 -23.29C131.1 -22.78 131.36 -22 131.36 -20.95L131.36 -10.69C131.36 -9.7 131.1 -8.94 130.59 -8.41C130.09 -7.88 129.32 -7.62 128.31 -7.62L114.57 -7.62L114.57 0L128.31 0C129.03 0 129.79 -0.08 130.59 -0.25C131.39 -0.42 132.19 -0.67 132.98 -1.03C133.77 -1.38 134.53 -1.83 135.25 -2.39C135.97 -2.94 136.61 -3.62 137.16 -4.41C137.7 -5.2 138.14 -6.12 138.47 -7.16C138.81 -8.21 138.97 -9.38 138.97 -10.69Z M186.4 -10.69L186.4 -21.01C186.4 -21.73 186.32 -22.49 186.15 -23.29C185.98 -24.09 185.72 -24.89 185.37 -25.68C185.02 -26.47 184.57 -27.23 184.01 -27.95C183.45 -28.67 182.78 -29.31 181.99 -29.85C181.2 -30.4 180.29 -30.84 179.25 -31.17C178.21 -31.5 177.04 -31.67 175.73 -31.67L161.99 -31.67C161.29 -31.67 160.53 -31.59 159.72 -31.42C158.91 -31.25 158.11 -31 157.32 -30.64C156.53 -30.29 155.77 -29.84 155.05 -29.28C154.33 -28.73 153.69 -28.05 153.13 -27.26C152.58 -26.47 152.13 -25.56 151.8 -24.52C151.47 -23.49 151.3 -22.31 151.3 -21.01L151.3 9.9L158.92 9.9L158.92 -21.01C158.92 -22 159.18 -22.76 159.71 -23.28C160.24 -23.79 161.02 -24.05 162.05 -24.05L175.73 -24.05C176.73 -24.05 177.49 -23.8 178 -23.29C178.52 -22.78 178.78 -22 178.78 -20.95L178.78 -10.69C178.78 -9.7 178.53 -8.94 178.02 -8.41C177.51 -7.88 176.75 -7.62 175.73 -7.62L161.99 -7.62L161.99 0L175.73 0C176.46 0 177.22 -0.08 178.02 -0.25C178.82 -0.42 179.62 -0.67 180.41 -1.03C181.2 -1.38 181.96 -1.83 182.68 -2.39C183.4 -2.94 184.03 -3.62 184.58 -4.41C185.13 -5.2 185.57 -6.12 185.9 -7.16C186.23 -8.21 186.4 -9.38 186.4 -10.69Z M233.36 -10.69L233.36 -21.01C233.36 -22.08 233.17 -23.24 232.78 -24.49C232.4 -25.74 231.79 -26.9 230.95 -27.96C230.11 -29.03 229.01 -29.91 227.64 -30.62C226.28 -31.32 224.62 -31.67 222.66 -31.67L208.92 -31.67C207.87 -31.67 206.71 -31.48 205.46 -31.11C204.21 -30.74 203.06 -30.13 201.99 -29.28C200.93 -28.43 200.04 -27.33 199.33 -25.97C198.61 -24.61 198.26 -22.96 198.26 -21.01L198.26 -10.69C198.26 -8.72 198.61 -7.06 199.33 -5.7C200.04 -4.34 200.93 -3.24 201.99 -2.39C203.06 -1.54 204.21 -0.93 205.46 -0.56C206.71 -0.19 207.87 0 208.92 0L222.66 0C223.38 0 224.15 -0.08 224.96 -0.25C225.77 -0.42 226.57 -0.67 227.36 -1.03C228.16 -1.38 228.91 -1.83 229.63 -2.39C230.36 -2.94 230.99 -3.62 231.54 -4.41C232.09 -5.2 232.53 -6.12 232.86 -7.16C233.19 -8.21 233.36 -9.38 233.36 -10.69ZM225.74 -20.95L225.74 -10.69C225.74 -9.7 225.48 -8.94 224.98 -8.41C224.47 -7.88 223.7 -7.62 222.66 -7.62L208.98 -7.62C207.96 -7.62 207.19 -7.88 206.67 -8.41C206.14 -8.94 205.88 -9.7 205.88 -10.69L205.88 -21.01C205.88 -22 206.14 -22.76 206.67 -23.28C207.19 -23.79 207.96 -24.05 208.98 -24.05L222.66 -24.05C223.66 -24.05 224.42 -23.8 224.95 -23.29C225.47 -22.78 225.74 -22 225.74 -20.95Z M273.54 -24.05L273.54 -31.67L256.35 -31.67C255.64 -31.67 254.89 -31.59 254.08 -31.42C253.27 -31.25 252.47 -31 251.67 -30.64C250.88 -30.29 250.13 -29.84 249.4 -29.28C248.68 -28.73 248.04 -28.05 247.49 -27.26C246.93 -26.47 246.48 -25.56 246.15 -24.52C245.82 -23.49 245.65 -22.31 245.65 -21.01L245.65 0L253.27 0L253.27 -21.01C253.27 -22 253.54 -22.76 254.06 -23.28C254.59 -23.79 255.37 -24.05 256.41 -24.05Z M313.35 -24.05L313.35 -31.67L300.05 -31.67L300.05 -42.01L292.35 -42.01L292.35 -31.67L282.45 -31.67L282.45 -24.05L292.35 -24.05L292.35 0L300.05 0L300.05 -24.05Z M390.63 -12.36C390.63 -13.87 390.44 -15.21 390.07 -16.41C389.7 -17.6 389.2 -18.65 388.56 -19.57C387.93 -20.49 387.2 -21.27 386.38 -21.93C385.56 -22.58 384.69 -23.12 383.79 -23.55C382.88 -23.98 381.96 -24.3 381.05 -24.51C380.13 -24.71 379.26 -24.82 378.44 -24.84L378.38 -24.84L360.86 -24.84C359.42 -24.84 358.29 -25.27 357.48 -26.12C356.67 -26.97 356.26 -28.12 356.26 -29.59C356.26 -31.04 356.67 -32.2 357.48 -33.08C358.29 -33.96 359.42 -34.39 360.86 -34.39L386.79 -34.39L386.79 -42.01L360.86 -42.01C359.63 -42.01 358.3 -41.79 356.88 -41.35C355.45 -40.91 354.13 -40.2 352.91 -39.21C351.69 -38.23 350.67 -36.95 349.86 -35.38C349.05 -33.8 348.64 -31.87 348.64 -29.59C348.64 -27.3 349.05 -25.37 349.86 -23.79C350.67 -22.21 351.69 -20.93 352.91 -19.95C354.13 -18.97 355.45 -18.27 356.88 -17.83C358.3 -17.39 359.63 -17.17 360.86 -17.17L378.38 -17.17C379.08 -17.17 379.72 -17.05 380.3 -16.82C380.88 -16.58 381.36 -16.25 381.76 -15.82C382.17 -15.39 382.47 -14.88 382.69 -14.3C382.9 -13.71 383.01 -13.07 383.01 -12.36C383.01 -10.92 382.6 -9.77 381.79 -8.91C380.98 -8.05 379.85 -7.62 378.38 -7.62L349 -7.62L349 0L378.38 0C379.2 0 380.08 -0.1 381 -0.29C381.93 -0.49 382.84 -0.79 383.74 -1.2C384.64 -1.61 385.51 -2.14 386.35 -2.78C387.19 -3.43 387.92 -4.21 388.55 -5.13C389.17 -6.04 389.67 -7.1 390.06 -8.31C390.44 -9.51 390.63 -10.86 390.63 -12.36Z M437.03 3.05L437.03 -31.67L429.41 -31.67L429.41 3.05C429.41 4.04 429.16 4.8 428.65 5.33C428.14 5.86 427.38 6.12 426.36 6.12L412.62 6.12L412.62 13.74L426.36 13.74C427.09 13.74 427.85 13.66 428.65 13.49C429.45 13.33 430.25 13.07 431.04 12.71C431.83 12.36 432.58 11.91 433.31 11.35C434.03 10.8 434.66 10.12 435.21 9.33C435.76 8.54 436.2 7.62 436.53 6.58C436.86 5.53 437.03 4.36 437.03 3.05ZM426.36 0L426.36 -7.62L412.68 -7.62C411.65 -7.62 410.87 -7.88 410.34 -8.41C409.81 -8.94 409.55 -9.7 409.55 -10.69L409.55 -31.67L401.93 -31.67L401.93 -10.69C401.93 -8.72 402.28 -7.06 402.98 -5.7C403.69 -4.34 404.58 -3.24 405.65 -2.39C406.72 -1.54 407.88 -0.93 409.12 -0.56C410.36 -0.19 411.53 0 412.62 0Z M480.91 -10.69C480.91 -11.77 480.72 -12.93 480.34 -14.18C479.96 -15.43 479.35 -16.59 478.51 -17.65C477.67 -18.72 476.56 -19.6 475.2 -20.3C473.83 -21.01 472.17 -21.36 470.21 -21.36L458.41 -21.36C458.23 -21.36 458.05 -21.36 457.87 -21.37C457.68 -21.38 457.51 -21.43 457.37 -21.5C457.22 -21.58 457.1 -21.71 457 -21.88C456.9 -22.06 456.85 -22.3 456.83 -22.62C456.83 -22.77 456.84 -22.93 456.86 -23.1C456.87 -23.27 456.94 -23.42 457.05 -23.57C457.15 -23.72 457.32 -23.83 457.54 -23.92C457.77 -24.01 458.08 -24.05 458.47 -24.05L477.13 -24.05L477.13 -31.67L458.41 -31.67C457.47 -31.67 456.46 -31.51 455.39 -31.19C454.32 -30.86 453.32 -30.34 452.4 -29.62C451.48 -28.9 450.72 -27.95 450.12 -26.79C449.51 -25.63 449.21 -24.2 449.21 -22.5C449.21 -21.62 449.37 -20.67 449.69 -19.66C450.01 -18.64 450.54 -17.7 451.27 -16.82C452.01 -15.94 452.96 -15.21 454.13 -14.62C455.3 -14.03 456.73 -13.74 458.41 -13.74L470.21 -13.74C472.17 -13.74 473.19 -12.72 473.29 -10.69C473.29 -9.7 473.03 -8.94 472.5 -8.41C471.97 -7.88 471.19 -7.62 470.16 -7.62L449.59 -7.62L449.59 0L470.21 0C470.94 0 471.7 -0.08 472.51 -0.25C473.33 -0.42 474.13 -0.67 474.92 -1.03C475.71 -1.38 476.46 -1.83 477.19 -2.39C477.91 -2.94 478.54 -3.62 479.09 -4.41C479.64 -5.2 480.08 -6.12 480.41 -7.16C480.74 -8.21 480.91 -9.38 480.91 -10.69Z M520.51 -24.05L520.51 -31.67L507.21 -31.67L507.21 -42.01L499.51 -42.01L499.51 -31.67L489.6 -31.67L489.6 -24.05L499.51 -24.05L499.51 0L507.21 0L507.21 -24.05Z M565.48 -21.18C565.48 -23.1 565.12 -24.72 564.42 -26.06C563.72 -27.4 562.84 -28.48 561.8 -29.31C560.75 -30.14 559.62 -30.74 558.4 -31.11C557.18 -31.48 556.04 -31.67 554.99 -31.67L541.25 -31.67C539.33 -31.67 537.71 -31.32 536.37 -30.62C535.03 -29.91 533.95 -29.04 533.12 -27.99C532.29 -26.95 531.69 -25.82 531.32 -24.59C530.95 -23.37 530.76 -22.24 530.76 -21.18L530.76 -10.49C530.76 -8.57 531.11 -6.95 531.81 -5.61C532.52 -4.27 533.39 -3.19 534.44 -2.36C535.48 -1.53 536.61 -0.93 537.83 -0.56C539.06 -0.19 540.19 0 541.25 0L554.99 0L554.99 -7.27L541.31 -7.27C540.37 -7.27 539.58 -7.55 538.95 -8.12C538.31 -8.68 538 -9.47 538 -10.49L538 -21.12C538 -22.06 538.28 -22.85 538.85 -23.48C539.41 -24.12 540.21 -24.43 541.25 -24.43L554.99 -24.43C555.89 -24.43 556.65 -24.15 557.29 -23.58C557.92 -23.02 558.24 -22.24 558.24 -21.24C558.24 -20.3 557.96 -19.52 557.39 -18.88C556.82 -18.25 556.02 -17.93 554.99 -17.93L541.25 -17.93L541.25 -10.69L554.99 -10.69C556.9 -10.69 558.53 -11.04 559.87 -11.75C561.2 -12.45 562.29 -13.33 563.12 -14.37C563.95 -15.42 564.55 -16.55 564.92 -17.77C565.29 -18.99 565.48 -20.13 565.48 -21.18Z M604.87 0L604.87 -21.01C604.87 -22.1 604.75 -23.12 604.49 -24.05L611.35 -24.05C612.38 -24.05 613.15 -23.79 613.65 -23.28C614.15 -22.76 614.4 -22 614.4 -21.01L614.4 0L622.01 0L622.01 -21.01C622.01 -22.31 621.85 -23.49 621.52 -24.52C621.18 -25.56 620.74 -26.47 620.2 -27.26C619.65 -28.05 619.02 -28.73 618.29 -29.28C617.57 -29.84 616.81 -30.29 616.02 -30.64C615.23 -31 614.44 -31.25 613.63 -31.42C612.83 -31.59 612.07 -31.67 611.35 -31.67L601.04 -31.67L601.04 -29.33C599.94 -30.15 598.79 -30.74 597.58 -31.11C596.37 -31.48 595.24 -31.67 594.18 -31.67L580.44 -31.67C579.91 -31.67 579.42 -31.57 578.95 -31.38C578.48 -31.18 578.07 -30.91 577.72 -30.57C577.37 -30.23 577.09 -29.83 576.9 -29.37C576.7 -28.91 576.6 -28.42 576.6 -27.89L576.6 0L584.22 0L584.22 -24.05L594.12 -24.05C595.16 -24.05 595.94 -23.79 596.47 -23.28C596.99 -22.76 597.26 -22 597.26 -21.01L597.26 0Z"/></g><g id="SvgjsG1056" class="text" transform="translate(226.7109914932251, 122.91299992370605)" light-content="false" fill="#2e2e2e"><path d="M27.86 -15.83L23.6 -15.83C23.12 -14.88 22.63 -13.92 22.13 -12.96C21.62 -11.99 21.09 -11.05 20.52 -10.11C19.94 -9.18 19.33 -8.28 18.66 -7.4C18 -6.52 17.26 -5.68 16.44 -4.89L16.44 -13.95C16.44 -14.33 16.33 -14.68 16.12 -14.99C15.91 -15.31 15.62 -15.54 15.26 -15.69C14.9 -15.84 14.53 -15.89 14.16 -15.81C13.78 -15.74 13.46 -15.57 13.18 -15.29L5.6 -6.81L5.6 -15.83L1.79 -15.83L1.79 -1.92C1.79 -1.65 1.84 -1.39 1.94 -1.16C2.04 -0.92 2.18 -0.72 2.36 -0.55C2.53 -0.38 2.74 -0.24 2.97 -0.15C3.2 -0.05 3.44 0 3.71 0C3.95 0 4.19 -0.05 4.42 -0.14C4.65 -0.23 4.86 -0.38 5.05 -0.57L12.61 -9.02L12.61 -1.92C12.61 -1.65 12.66 -1.39 12.76 -1.16C12.86 -0.92 12.99 -0.72 13.17 -0.55C13.34 -0.38 13.55 -0.24 13.78 -0.15C14.02 -0.05 14.27 0 14.55 0C15.21 0 15.92 -0.2 16.66 -0.61C17.41 -1.01 18.18 -1.57 18.96 -2.29C19.75 -3.01 20.54 -3.86 21.34 -4.86C22.14 -5.85 22.93 -6.93 23.69 -8.1C24.46 -9.27 25.2 -10.52 25.9 -11.83C26.6 -13.14 27.26 -14.48 27.86 -15.83Z M46.79 0L46.79 -10.5C46.79 -11.16 46.7 -11.74 46.54 -12.26C46.37 -12.78 46.15 -13.23 45.88 -13.63C45.61 -14.03 45.29 -14.36 44.93 -14.64C44.57 -14.92 44.19 -15.15 43.79 -15.32C43.4 -15.5 43 -15.63 42.6 -15.71C42.2 -15.79 41.82 -15.83 41.46 -15.83L34.58 -15.83L34.58 -12.03L41.46 -12.03C41.96 -12.03 42.34 -11.9 42.6 -11.64C42.85 -11.38 42.98 -11 42.98 -10.5L42.98 0ZM33.05 0L33.05 -22.53L29.24 -22.53L29.24 0Z M67.31 -10.59C67.31 -11.55 67.13 -12.36 66.78 -13.03C66.43 -13.7 65.99 -14.24 65.47 -14.66C64.95 -15.07 64.38 -15.37 63.77 -15.56C63.16 -15.74 62.59 -15.83 62.07 -15.83L55.2 -15.83C54.24 -15.83 53.43 -15.66 52.76 -15.31C52.09 -14.96 51.55 -14.52 51.13 -14C50.72 -13.47 50.42 -12.91 50.23 -12.3C50.04 -11.69 49.95 -11.12 49.95 -10.59L49.95 -5.24C49.95 -4.29 50.13 -3.47 50.48 -2.81C50.83 -2.14 51.27 -1.59 51.79 -1.18C52.31 -0.76 52.88 -0.46 53.49 -0.28C54.1 -0.09 54.67 0 55.2 0L62.07 0L62.07 -3.63L55.22 -3.63C54.76 -3.63 54.36 -3.77 54.05 -4.06C53.73 -4.34 53.57 -4.74 53.57 -5.24L53.57 -10.56C53.57 -11.03 53.71 -11.42 53.99 -11.74C54.28 -12.06 54.68 -12.22 55.2 -12.22L62.07 -12.22C62.51 -12.22 62.9 -12.08 63.22 -11.79C63.53 -11.51 63.69 -11.12 63.69 -10.62C63.69 -10.15 63.55 -9.76 63.27 -9.44C62.98 -9.12 62.58 -8.96 62.07 -8.96L55.2 -8.96L55.2 -5.35L62.07 -5.35C63.02 -5.35 63.84 -5.52 64.5 -5.87C65.17 -6.23 65.72 -6.66 66.13 -7.19C66.55 -7.71 66.85 -8.27 67.03 -8.88C67.22 -9.49 67.31 -10.06 67.31 -10.59Z M83.73 -12.03L83.73 -15.83L75.13 -15.83C74.78 -15.83 74.4 -15.79 74 -15.71C73.59 -15.63 73.19 -15.5 72.8 -15.32C72.4 -15.15 72.02 -14.92 71.66 -14.64C71.3 -14.36 70.98 -14.03 70.7 -13.63C70.42 -13.23 70.2 -12.78 70.03 -12.26C69.87 -11.74 69.79 -11.16 69.79 -10.5L69.79 0L73.59 0L73.59 -10.5C73.59 -11 73.73 -11.38 73.99 -11.64C74.25 -11.9 74.64 -12.03 75.16 -12.03Z M103.21 -10.59C103.21 -11.55 103.04 -12.36 102.69 -13.03C102.33 -13.7 101.9 -14.24 101.37 -14.66C100.85 -15.07 100.29 -15.37 99.68 -15.56C99.06 -15.74 98.5 -15.83 97.97 -15.83L91.1 -15.83C90.14 -15.83 89.33 -15.66 88.66 -15.31C87.99 -14.96 87.45 -14.52 87.03 -14C86.62 -13.47 86.32 -12.91 86.13 -12.3C85.95 -11.69 85.85 -11.12 85.85 -10.59L85.85 -5.24C85.85 -4.29 86.03 -3.47 86.38 -2.81C86.73 -2.14 87.17 -1.59 87.69 -1.18C88.22 -0.76 88.78 -0.46 89.39 -0.28C90 -0.09 90.57 0 91.1 0L97.97 0L97.97 -3.63L91.13 -3.63C90.66 -3.63 90.27 -3.77 89.95 -4.06C89.63 -4.34 89.47 -4.74 89.47 -5.24L89.47 -10.56C89.47 -11.03 89.61 -11.42 89.9 -11.74C90.18 -12.06 90.58 -12.22 91.1 -12.22L97.97 -12.22C98.42 -12.22 98.8 -12.08 99.12 -11.79C99.44 -11.51 99.59 -11.12 99.59 -10.62C99.59 -10.15 99.45 -9.76 99.17 -9.44C98.89 -9.12 98.49 -8.96 97.97 -8.96L91.1 -8.96L91.1 -5.35L97.97 -5.35C98.93 -5.35 99.74 -5.52 100.41 -5.87C101.08 -6.23 101.62 -6.66 102.03 -7.19C102.45 -7.71 102.75 -8.27 102.93 -8.88C103.12 -9.49 103.21 -10.06 103.21 -10.59Z M141.61 -15.83L137.34 -15.83C136.87 -14.88 136.37 -13.92 135.87 -12.96C135.37 -11.99 134.83 -11.05 134.26 -10.11C133.69 -9.18 133.07 -8.28 132.41 -7.4C131.74 -6.52 131 -5.68 130.18 -4.89L130.18 -13.95C130.18 -14.33 130.08 -14.68 129.87 -14.99C129.66 -15.31 129.37 -15.54 129.01 -15.69C128.65 -15.84 128.28 -15.89 127.9 -15.81C127.53 -15.74 127.2 -15.57 126.93 -15.29L119.34 -6.81L119.34 -15.83L115.53 -15.83L115.53 -1.92C115.53 -1.65 115.58 -1.39 115.69 -1.16C115.79 -0.92 115.93 -0.72 116.1 -0.55C116.28 -0.38 116.48 -0.24 116.71 -0.15C116.94 -0.05 117.19 0 117.45 0C117.7 0 117.93 -0.05 118.16 -0.14C118.39 -0.23 118.6 -0.38 118.8 -0.57L126.36 -9.02L126.36 -1.92C126.36 -1.65 126.41 -1.39 126.5 -1.16C126.6 -0.92 126.74 -0.72 126.91 -0.55C127.09 -0.38 127.29 -0.24 127.53 -0.15C127.76 -0.05 128.02 0 128.29 0C128.96 0 129.66 -0.2 130.41 -0.61C131.15 -1.01 131.92 -1.57 132.71 -2.29C133.49 -3.01 134.29 -3.86 135.09 -4.86C135.89 -5.85 136.67 -6.93 137.44 -8.1C138.21 -9.27 138.94 -10.52 139.64 -11.83C140.35 -13.14 141 -14.48 141.61 -15.83Z M159.96 -10.59C159.96 -11.55 159.79 -12.36 159.43 -13.03C159.08 -13.7 158.65 -14.24 158.12 -14.66C157.6 -15.07 157.03 -15.37 156.42 -15.56C155.81 -15.74 155.24 -15.83 154.72 -15.83L147.85 -15.83C146.89 -15.83 146.08 -15.66 145.41 -15.31C144.74 -14.96 144.2 -14.52 143.78 -14C143.37 -13.47 143.07 -12.91 142.88 -12.3C142.7 -11.69 142.6 -11.12 142.6 -10.59L142.6 -5.24C142.6 -4.29 142.78 -3.47 143.13 -2.81C143.48 -2.14 143.92 -1.59 144.44 -1.18C144.96 -0.76 145.53 -0.46 146.14 -0.28C146.75 -0.09 147.32 0 147.85 0L154.72 0L154.72 -3.63L147.88 -3.63C147.41 -3.63 147.01 -3.77 146.7 -4.06C146.38 -4.34 146.22 -4.74 146.22 -5.24L146.22 -10.56C146.22 -11.03 146.36 -11.42 146.65 -11.74C146.93 -12.06 147.33 -12.22 147.85 -12.22L154.72 -12.22C155.17 -12.22 155.55 -12.08 155.87 -11.79C156.18 -11.51 156.34 -11.12 156.34 -10.62C156.34 -10.15 156.2 -9.76 155.92 -9.44C155.63 -9.12 155.23 -8.96 154.72 -8.96L147.85 -8.96L147.85 -5.35L154.72 -5.35C155.67 -5.35 156.49 -5.52 157.16 -5.87C157.82 -6.23 158.37 -6.66 158.78 -7.19C159.2 -7.71 159.5 -8.27 159.68 -8.88C159.87 -9.49 159.96 -10.06 159.96 -10.59Z M187.59 -5.35C187.59 -5.88 187.49 -6.46 187.3 -7.09C187.11 -7.71 186.81 -8.29 186.39 -8.83C185.97 -9.36 185.42 -9.8 184.73 -10.15C184.05 -10.5 183.22 -10.68 182.24 -10.68L176.34 -10.68C176.25 -10.68 176.16 -10.68 176.07 -10.69C175.97 -10.69 175.89 -10.71 175.82 -10.75C175.74 -10.79 175.68 -10.85 175.63 -10.94C175.59 -11.03 175.56 -11.15 175.55 -11.31C175.55 -11.39 175.55 -11.47 175.56 -11.55C175.57 -11.63 175.6 -11.71 175.66 -11.78C175.71 -11.86 175.79 -11.92 175.91 -11.96C176.02 -12 176.17 -12.03 176.37 -12.03L185.7 -12.03L185.7 -15.83L176.34 -15.83C175.87 -15.83 175.37 -15.75 174.83 -15.59C174.29 -15.43 173.79 -15.17 173.33 -14.81C172.88 -14.45 172.5 -13.98 172.19 -13.4C171.89 -12.81 171.74 -12.1 171.74 -11.25C171.74 -10.81 171.82 -10.34 171.98 -9.83C172.14 -9.32 172.4 -8.85 172.77 -8.41C173.14 -7.97 173.61 -7.6 174.2 -7.31C174.79 -7.02 175.5 -6.87 176.34 -6.87L182.24 -6.87C183.22 -6.87 183.73 -6.36 183.78 -5.35C183.78 -4.85 183.65 -4.47 183.38 -4.2C183.12 -3.94 182.73 -3.81 182.21 -3.81L171.93 -3.81L171.93 0L182.24 0C182.6 0 182.99 -0.04 183.39 -0.12C183.8 -0.21 184.2 -0.34 184.59 -0.51C184.99 -0.69 185.37 -0.92 185.73 -1.19C186.09 -1.47 186.41 -1.81 186.68 -2.2C186.95 -2.6 187.17 -3.06 187.34 -3.58C187.5 -4.1 187.59 -4.69 187.59 -5.35Z M207.71 1.52L207.71 -15.83L203.91 -15.83L203.91 1.52C203.91 2.02 203.78 2.4 203.53 2.67C203.27 2.93 202.89 3.06 202.38 3.06L195.51 3.06L195.51 6.87L202.38 6.87C202.74 6.87 203.13 6.83 203.53 6.75C203.93 6.66 204.32 6.53 204.72 6.36C205.11 6.18 205.49 5.95 205.85 5.68C206.22 5.4 206.53 5.06 206.81 4.67C207.08 4.27 207.3 3.81 207.47 3.29C207.63 2.77 207.71 2.18 207.71 1.52ZM202.38 0L202.38 -3.81L195.54 -3.81C195.02 -3.81 194.63 -3.94 194.37 -4.2C194.11 -4.47 193.97 -4.85 193.97 -5.35L193.97 -15.83L190.17 -15.83L190.17 -5.35C190.17 -4.36 190.34 -3.53 190.69 -2.85C191.04 -2.17 191.49 -1.62 192.03 -1.19C192.56 -0.77 193.14 -0.46 193.76 -0.28C194.38 -0.09 194.97 0 195.51 0Z M226.66 -5.35C226.66 -5.88 226.56 -6.46 226.37 -7.09C226.18 -7.71 225.87 -8.29 225.45 -8.83C225.03 -9.36 224.48 -9.8 223.8 -10.15C223.12 -10.5 222.29 -10.68 221.31 -10.68L215.41 -10.68C215.32 -10.68 215.23 -10.68 215.13 -10.69C215.04 -10.69 214.96 -10.71 214.89 -10.75C214.81 -10.79 214.75 -10.85 214.7 -10.94C214.65 -11.03 214.62 -11.15 214.61 -11.31C214.61 -11.39 214.62 -11.47 214.63 -11.55C214.64 -11.63 214.67 -11.71 214.72 -11.78C214.78 -11.86 214.86 -11.92 214.97 -11.96C215.09 -12 215.24 -12.03 215.43 -12.03L224.77 -12.03L224.77 -15.83L215.41 -15.83C214.94 -15.83 214.43 -15.75 213.9 -15.59C213.36 -15.43 212.86 -15.17 212.4 -14.81C211.94 -14.45 211.56 -13.98 211.26 -13.4C210.96 -12.81 210.81 -12.1 210.81 -11.25C210.81 -10.81 210.89 -10.34 211.05 -9.83C211.21 -9.32 211.47 -8.85 211.84 -8.41C212.2 -7.97 212.68 -7.6 213.27 -7.31C213.85 -7.02 214.57 -6.87 215.41 -6.87L221.31 -6.87C222.29 -6.87 222.8 -6.36 222.85 -5.35C222.85 -4.85 222.71 -4.47 222.45 -4.2C222.19 -3.94 221.8 -3.81 221.28 -3.81L211 -3.81L211 0L221.31 0C221.67 0 222.05 -0.04 222.46 -0.12C222.86 -0.21 223.26 -0.34 223.66 -0.51C224.06 -0.69 224.43 -0.92 224.79 -1.19C225.16 -1.47 225.47 -1.81 225.75 -2.2C226.02 -2.6 226.24 -3.06 226.41 -3.58C226.57 -4.1 226.66 -4.69 226.66 -5.35Z M243.46 -12.03L243.46 -15.83L236.81 -15.83L236.81 -21.01L232.95 -21.01L232.95 -15.83L228 -15.83L228 -12.03L232.95 -12.03L232.95 0L236.81 0L236.81 -12.03Z M262.94 -10.59C262.94 -11.55 262.76 -12.36 262.41 -13.03C262.06 -13.7 261.62 -14.24 261.1 -14.66C260.58 -15.07 260.01 -15.37 259.4 -15.56C258.79 -15.74 258.22 -15.83 257.7 -15.83L250.83 -15.83C249.87 -15.83 249.06 -15.66 248.39 -15.31C247.72 -14.96 247.18 -14.52 246.76 -14C246.35 -13.47 246.04 -12.91 245.86 -12.3C245.67 -11.69 245.58 -11.12 245.58 -10.59L245.58 -5.24C245.58 -4.29 245.76 -3.47 246.11 -2.81C246.46 -2.14 246.9 -1.59 247.42 -1.18C247.94 -0.76 248.51 -0.46 249.12 -0.28C249.73 -0.09 250.3 0 250.83 0L257.7 0L257.7 -3.63L250.85 -3.63C250.39 -3.63 249.99 -3.77 249.68 -4.06C249.36 -4.34 249.2 -4.74 249.2 -5.24L249.2 -10.56C249.2 -11.03 249.34 -11.42 249.62 -11.74C249.91 -12.06 250.31 -12.22 250.83 -12.22L257.7 -12.22C258.14 -12.22 258.53 -12.08 258.85 -11.79C259.16 -11.51 259.32 -11.12 259.32 -10.62C259.32 -10.15 259.18 -9.76 258.9 -9.44C258.61 -9.12 258.21 -8.96 257.7 -8.96L250.83 -8.96L250.83 -5.35L257.7 -5.35C258.65 -5.35 259.47 -5.52 260.13 -5.87C260.8 -6.23 261.35 -6.66 261.76 -7.19C262.18 -7.71 262.48 -8.27 262.66 -8.88C262.85 -9.49 262.94 -10.06 262.94 -10.59Z M279.64 0L279.64 -10.5C279.64 -11.05 279.58 -11.56 279.45 -12.03L282.88 -12.03C283.39 -12.03 283.78 -11.9 284.03 -11.64C284.27 -11.38 284.4 -11 284.4 -10.5L284.4 0L288.21 0L288.21 -10.5C288.21 -11.16 288.13 -11.74 287.96 -12.26C287.79 -12.78 287.57 -13.23 287.3 -13.63C287.03 -14.03 286.71 -14.36 286.35 -14.64C285.99 -14.92 285.61 -15.15 285.21 -15.32C284.82 -15.5 284.42 -15.63 284.02 -15.71C283.62 -15.79 283.24 -15.83 282.88 -15.83L277.72 -15.83L277.72 -14.66C277.17 -15.07 276.6 -15.37 275.99 -15.56C275.39 -15.74 274.82 -15.83 274.29 -15.83L267.42 -15.83C267.16 -15.83 266.91 -15.79 266.67 -15.69C266.44 -15.59 266.24 -15.46 266.06 -15.29C265.88 -15.11 265.75 -14.91 265.65 -14.69C265.55 -14.46 265.5 -14.21 265.5 -13.95L265.5 0L269.31 0L269.31 -12.03L274.26 -12.03C274.78 -12.03 275.17 -11.9 275.43 -11.64C275.7 -11.38 275.83 -11 275.83 -10.5L275.83 0Z M308.06 -5.24L308.06 -10.59C308.06 -11.55 307.88 -12.36 307.53 -13.03C307.18 -13.7 306.74 -14.24 306.22 -14.66C305.7 -15.07 305.13 -15.37 304.52 -15.56C303.91 -15.74 303.34 -15.83 302.81 -15.83L294.45 -15.83L294.45 -12.22L302.81 -12.22C303.28 -12.22 303.67 -12.07 303.98 -11.78C304.28 -11.48 304.44 -11.09 304.44 -10.59L304.44 -5.27C304.44 -4.8 304.3 -4.41 304.01 -4.1C303.73 -3.79 303.33 -3.63 302.81 -3.63L295.97 -3.63C295.52 -3.63 295.13 -3.77 294.81 -4.05C294.48 -4.33 294.32 -4.72 294.32 -5.21C294.32 -5.68 294.46 -6.08 294.74 -6.39C295.02 -6.71 295.42 -6.87 295.94 -6.87L302.81 -6.87L302.81 -10.5L295.94 -10.5C294.99 -10.5 294.17 -10.33 293.5 -9.98C292.83 -9.62 292.29 -9.19 291.88 -8.66C291.46 -8.14 291.16 -7.57 290.98 -6.96C290.79 -6.34 290.7 -5.77 290.7 -5.24C290.7 -4.29 290.87 -3.47 291.23 -2.81C291.58 -2.14 292.01 -1.59 292.54 -1.18C293.06 -0.76 293.63 -0.46 294.24 -0.28C294.85 -0.09 295.42 0 295.94 0L302.81 0C303.77 0 304.58 -0.18 305.25 -0.53C305.92 -0.88 306.46 -1.32 306.88 -1.84C307.29 -2.36 307.59 -2.93 307.78 -3.54C307.96 -4.15 308.06 -4.72 308.06 -5.24Z M325.65 -12.03L325.65 -15.83L319 -15.83L319 -21.01L315.15 -21.01L315.15 -15.83L310.2 -15.83L310.2 -12.03L315.15 -12.03L315.15 0L319 0L319 -12.03Z M332.02 -19.09L332.02 -22.53L328.21 -22.53L328.21 -19.09ZM332.02 0L332.02 -15.83L328.21 -15.83L328.21 0Z M351.01 0L351.01 -3.81L340.71 -3.81C340.2 -3.81 339.81 -3.94 339.55 -4.2C339.29 -4.47 339.16 -4.85 339.16 -5.35L339.16 -10.47C339.16 -11 339.28 -11.39 339.54 -11.65C339.8 -11.9 340.18 -12.03 340.68 -12.03L351.01 -12.03L351.01 -15.83L340.68 -15.83C340.02 -15.83 339.44 -15.75 338.92 -15.59C338.4 -15.42 337.95 -15.2 337.55 -14.93C337.16 -14.65 336.82 -14.34 336.54 -13.97C336.26 -13.61 336.04 -13.23 335.86 -12.84C335.68 -12.44 335.55 -12.05 335.47 -11.65C335.39 -11.25 335.35 -10.86 335.35 -10.5L335.35 -5.35C335.35 -4.36 335.52 -3.53 335.88 -2.85C336.24 -2.17 336.68 -1.62 337.21 -1.19C337.75 -0.77 338.33 -0.46 338.95 -0.28C339.58 -0.09 340.15 0 340.68 0Z M370.4 -5.24L370.4 -10.59C370.4 -11.55 370.22 -12.36 369.87 -13.03C369.52 -13.7 369.08 -14.24 368.56 -14.66C368.04 -15.07 367.47 -15.37 366.86 -15.56C366.25 -15.74 365.68 -15.83 365.16 -15.83L356.79 -15.83L356.79 -12.22L365.16 -12.22C365.63 -12.22 366.01 -12.07 366.32 -11.78C366.63 -11.48 366.78 -11.09 366.78 -10.59L366.78 -5.27C366.78 -4.8 366.64 -4.41 366.36 -4.1C366.07 -3.79 365.67 -3.63 365.16 -3.63L358.32 -3.63C357.87 -3.63 357.48 -3.77 357.15 -4.05C356.82 -4.33 356.66 -4.72 356.66 -5.21C356.66 -5.68 356.8 -6.08 357.08 -6.39C357.37 -6.71 357.77 -6.87 358.29 -6.87L365.16 -6.87L365.16 -10.5L358.29 -10.5C357.33 -10.5 356.52 -10.33 355.85 -9.98C355.18 -9.62 354.64 -9.19 354.22 -8.66C353.81 -8.14 353.51 -7.57 353.32 -6.96C353.13 -6.34 353.04 -5.77 353.04 -5.24C353.04 -4.29 353.22 -3.47 353.57 -2.81C353.92 -2.14 354.36 -1.59 354.88 -1.18C355.4 -0.76 355.97 -0.46 356.58 -0.28C357.19 -0.09 357.76 0 358.29 0L365.16 0C366.11 0 366.93 -0.18 367.6 -0.53C368.26 -0.88 368.81 -1.32 369.22 -1.84C369.64 -2.36 369.94 -2.93 370.12 -3.54C370.31 -4.15 370.4 -4.72 370.4 -5.24Z M380.61 0L380.61 -3.81L378.91 -3.81C378.47 -3.81 378.11 -3.95 377.81 -4.23C377.52 -4.5 377.37 -4.88 377.37 -5.35L377.37 -22.53L373.56 -22.53L373.56 -5.35C373.56 -4.36 373.74 -3.53 374.09 -2.85C374.44 -2.17 374.89 -1.62 375.42 -1.19C375.96 -0.77 376.54 -0.46 377.16 -0.28C377.78 -0.09 378.36 0 378.91 0Z M390.01 0L390.01 -3.81L388.32 -3.81C387.88 -3.81 387.51 -3.95 387.22 -4.23C386.92 -4.5 386.78 -4.88 386.78 -5.35L386.78 -22.53L382.97 -22.53L382.97 -5.35C382.97 -4.36 383.14 -3.53 383.5 -2.85C383.85 -2.17 384.29 -1.62 384.83 -1.19C385.37 -0.77 385.94 -0.46 386.56 -0.28C387.19 -0.09 387.77 0 388.32 0Z M409.92 1.52L409.92 -15.83L406.11 -15.83L406.11 1.52C406.11 2.02 405.99 2.4 405.73 2.67C405.48 2.93 405.1 3.06 404.59 3.06L397.72 3.06L397.72 6.87L404.59 6.87C404.95 6.87 405.33 6.83 405.73 6.75C406.13 6.66 406.53 6.53 406.93 6.36C407.32 6.18 407.7 5.95 408.06 5.68C408.42 5.4 408.74 5.06 409.01 4.67C409.29 4.27 409.51 3.81 409.67 3.29C409.84 2.77 409.92 2.18 409.92 1.52ZM404.59 0L404.59 -3.81L397.75 -3.81C397.23 -3.81 396.84 -3.94 396.58 -4.2C396.31 -4.47 396.18 -4.85 396.18 -5.35L396.18 -15.83L392.37 -15.83L392.37 -5.35C392.37 -4.36 392.55 -3.53 392.9 -2.85C393.25 -2.17 393.7 -1.62 394.23 -1.19C394.77 -0.77 395.35 -0.46 395.97 -0.28C396.59 -0.09 397.17 0 397.72 0Z M438.62 -5.35C438.62 -5.88 438.52 -6.46 438.33 -7.09C438.14 -7.71 437.84 -8.29 437.42 -8.83C437 -9.36 436.45 -9.8 435.76 -10.15C435.08 -10.5 434.25 -10.68 433.27 -10.68L427.37 -10.68C427.28 -10.68 427.19 -10.68 427.1 -10.69C427 -10.69 426.92 -10.71 426.85 -10.75C426.77 -10.79 426.71 -10.85 426.67 -10.94C426.62 -11.03 426.59 -11.15 426.58 -11.31C426.58 -11.39 426.58 -11.47 426.59 -11.55C426.6 -11.63 426.63 -11.71 426.69 -11.78C426.74 -11.86 426.82 -11.92 426.94 -11.96C427.05 -12 427.2 -12.03 427.4 -12.03L436.73 -12.03L436.73 -15.83L427.37 -15.83C426.9 -15.83 426.4 -15.75 425.86 -15.59C425.32 -15.43 424.82 -15.17 424.37 -14.81C423.91 -14.45 423.53 -13.98 423.22 -13.4C422.92 -12.81 422.77 -12.1 422.77 -11.25C422.77 -10.81 422.85 -10.34 423.01 -9.83C423.17 -9.32 423.44 -8.85 423.8 -8.41C424.17 -7.97 424.64 -7.6 425.23 -7.31C425.82 -7.02 426.53 -6.87 427.37 -6.87L433.27 -6.87C434.25 -6.87 434.76 -6.36 434.81 -5.35C434.81 -4.85 434.68 -4.47 434.41 -4.2C434.15 -3.94 433.76 -3.81 433.24 -3.81L422.96 -3.81L422.96 0L433.27 0C433.63 0 434.02 -0.04 434.42 -0.12C434.83 -0.21 435.23 -0.34 435.62 -0.51C436.02 -0.69 436.4 -0.92 436.76 -1.19C437.12 -1.47 437.44 -1.81 437.71 -2.2C437.98 -2.6 438.2 -3.06 438.37 -3.58C438.54 -4.1 438.62 -4.69 438.62 -5.35Z M458.6 -1.92L458.6 -15.83L454.79 -15.83L454.79 -3.81L448.13 -3.81C447.67 -3.81 447.24 -3.88 446.84 -4.04C446.45 -4.19 446.1 -4.4 445.81 -4.69C445.52 -4.97 445.29 -5.31 445.11 -5.71C444.94 -6.1 444.86 -6.55 444.86 -7.05L444.86 -15.83L441.05 -15.83L441.05 -7.05C441.05 -6.19 441.16 -5.42 441.38 -4.73C441.6 -4.05 441.89 -3.44 442.25 -2.92C442.61 -2.4 443.03 -1.96 443.52 -1.59C444 -1.22 444.5 -0.92 445.02 -0.68C445.54 -0.44 446.06 -0.27 446.59 -0.16C447.13 -0.05 447.63 0 448.1 0L456.71 0C456.97 0 457.22 -0.05 457.45 -0.15C457.68 -0.24 457.88 -0.38 458.05 -0.55C458.22 -0.72 458.35 -0.92 458.45 -1.16C458.55 -1.39 458.6 -1.65 458.6 -1.92Z M479.63 -5.35L479.63 -10.5C479.63 -10.86 479.59 -11.25 479.51 -11.65C479.43 -12.05 479.3 -12.44 479.12 -12.84C478.95 -13.23 478.72 -13.61 478.44 -13.97C478.16 -14.34 477.82 -14.65 477.43 -14.93C477.03 -15.2 476.58 -15.42 476.06 -15.59C475.54 -15.75 474.96 -15.83 474.3 -15.83L467.43 -15.83C467.08 -15.83 466.7 -15.79 466.3 -15.71C465.89 -15.63 465.49 -15.5 465.1 -15.32C464.7 -15.15 464.32 -14.92 463.96 -14.64C463.6 -14.36 463.28 -14.03 463 -13.63C462.72 -13.23 462.5 -12.78 462.33 -12.26C462.17 -11.74 462.08 -11.16 462.08 -10.5L462.08 4.95L465.89 4.95L465.89 -10.5C465.89 -11 466.03 -11.38 466.29 -11.64C466.55 -11.9 466.94 -12.03 467.46 -12.03L474.3 -12.03C474.8 -12.03 475.18 -11.9 475.44 -11.65C475.7 -11.39 475.83 -11 475.83 -10.47L475.83 -5.35C475.83 -4.85 475.7 -4.47 475.44 -4.2C475.19 -3.94 474.81 -3.81 474.3 -3.81L467.43 -3.81L467.43 0L474.3 0C474.66 0 475.04 -0.04 475.44 -0.12C475.84 -0.21 476.24 -0.34 476.64 -0.51C477.03 -0.69 477.41 -0.92 477.77 -1.19C478.13 -1.47 478.45 -1.81 478.73 -2.2C479 -2.6 479.22 -3.06 479.38 -3.58C479.55 -4.1 479.63 -4.69 479.63 -5.35Z M500.35 -5.35L500.35 -10.5C500.35 -10.86 500.31 -11.25 500.22 -11.65C500.14 -12.05 500.01 -12.44 499.83 -12.84C499.66 -13.23 499.43 -13.61 499.15 -13.97C498.87 -14.34 498.54 -14.65 498.14 -14.93C497.75 -15.2 497.29 -15.42 496.77 -15.59C496.25 -15.75 495.67 -15.83 495.01 -15.83L488.14 -15.83C487.79 -15.83 487.41 -15.79 487.01 -15.71C486.6 -15.63 486.2 -15.5 485.81 -15.32C485.41 -15.15 485.03 -14.92 484.67 -14.64C484.31 -14.36 483.99 -14.03 483.71 -13.63C483.44 -13.23 483.21 -12.78 483.05 -12.26C482.88 -11.74 482.8 -11.16 482.8 -10.5L482.8 4.95L486.61 4.95L486.61 -10.5C486.61 -11 486.74 -11.38 487 -11.64C487.27 -11.9 487.66 -12.03 488.17 -12.03L495.01 -12.03C495.51 -12.03 495.89 -11.9 496.15 -11.65C496.41 -11.39 496.54 -11 496.54 -10.47L496.54 -5.35C496.54 -4.85 496.41 -4.47 496.16 -4.2C495.9 -3.94 495.52 -3.81 495.01 -3.81L488.14 -3.81L488.14 0L495.01 0C495.38 0 495.76 -0.04 496.16 -0.12C496.56 -0.21 496.96 -0.34 497.35 -0.51C497.75 -0.69 498.13 -0.92 498.49 -1.19C498.85 -1.47 499.16 -1.81 499.44 -2.2C499.71 -2.6 499.93 -3.06 500.1 -3.58C500.26 -4.1 500.35 -4.69 500.35 -5.35Z M520.83 -5.35L520.83 -10.5C520.83 -11.04 520.73 -11.62 520.54 -12.25C520.35 -12.87 520.04 -13.45 519.62 -13.98C519.2 -14.51 518.65 -14.96 517.97 -15.31C517.29 -15.66 516.46 -15.83 515.48 -15.83L508.61 -15.83C508.08 -15.83 507.5 -15.74 506.88 -15.56C506.25 -15.37 505.68 -15.07 505.14 -14.64C504.61 -14.22 504.17 -13.66 503.81 -12.99C503.45 -12.31 503.28 -11.48 503.28 -10.5L503.28 -5.35C503.28 -4.36 503.45 -3.53 503.81 -2.85C504.17 -2.17 504.61 -1.62 505.14 -1.19C505.68 -0.77 506.25 -0.46 506.88 -0.28C507.5 -0.09 508.08 0 508.61 0L515.48 0C515.84 0 516.22 -0.04 516.63 -0.12C517.03 -0.21 517.43 -0.34 517.83 -0.51C518.23 -0.69 518.6 -0.92 518.96 -1.19C519.33 -1.47 519.64 -1.81 519.92 -2.2C520.19 -2.6 520.41 -3.06 520.58 -3.58C520.74 -4.1 520.83 -4.69 520.83 -5.35ZM517.02 -10.47L517.02 -5.35C517.02 -4.85 516.89 -4.47 516.64 -4.2C516.38 -3.94 516 -3.81 515.48 -3.81L508.64 -3.81C508.13 -3.81 507.74 -3.94 507.48 -4.2C507.22 -4.47 507.08 -4.85 507.08 -5.35L507.08 -10.5C507.08 -11 507.22 -11.38 507.48 -11.64C507.74 -11.9 508.13 -12.03 508.64 -12.03L515.48 -12.03C515.98 -12.03 516.36 -11.9 516.62 -11.65C516.88 -11.39 517.02 -11 517.02 -10.47Z M537.92 -12.03L537.92 -15.83L529.32 -15.83C528.97 -15.83 528.59 -15.79 528.19 -15.71C527.78 -15.63 527.38 -15.5 526.98 -15.32C526.59 -15.15 526.21 -14.92 525.85 -14.64C525.49 -14.36 525.17 -14.03 524.89 -13.63C524.61 -13.23 524.39 -12.78 524.22 -12.26C524.06 -11.74 523.97 -11.16 523.97 -10.5L523.97 0L527.78 0L527.78 -10.5C527.78 -11 527.92 -11.38 528.18 -11.64C528.44 -11.9 528.83 -12.03 529.35 -12.03Z M554.82 -12.03L554.82 -15.83L548.17 -15.83L548.17 -21.01L544.32 -21.01L544.32 -15.83L539.37 -15.83L539.37 -12.03L544.32 -12.03L544.32 0L548.17 0L548.17 -12.03Z"/></g></g></svg>